<?xml version="1.0" encoding="iso-8859-1"?>
<!-- Generator: Adobe Illustrator 26.0.3, SVG Export Plug-In . SVG Version: 6.00 Build 0)  -->
<svg version="1.1" id="Layer_1" xmlns="http://www.w3.org/2000/svg" xmlns:xlink="http://www.w3.org/1999/xlink" x="0px" y="0px"
	 viewBox="0 0 450 450" style="enable-background:new 0 0 450 450;" xml:space="preserve">
<g>
	<path d="M437.567,16.349c0,38.21-0.037,75.146,0.007,112.082c0.113,93.702,0.264,187.404,0.395,281.107
		c0.004,2.756,0.11,5.523-0.097,8.265c-0.535,7.083,2.005,16.134-9.409,16.98c-9.15,0.678-17.249-7.394-19.108-17.215
		c-3.558-18.806-6.379-37.893-11.854-56.159c-6.867-22.908-20.557-41.871-42.226-53.249c-27.936-14.669-40.144-36.06-33.086-67.735
		c5.7-25.582-6.91-46.01-21.168-65.125c-4.14-5.551-11.649-9.273-18.349-12.08c-11.946-5.006-24.22-9.596-36.763-12.742
		c-45.3-11.362-87.311-31.21-130.092-49.135c-10.661-4.467-19.098-10.854-23.542-21.748C86.878,66.358,77.528,61.91,63.231,63.821
		c-19.069,2.549-28.086-3.154-36.913-20.276c-7.815-15.161-1.05-26.761,16.118-27c43.696-0.609,87.395-1.253,131.094-1.386
		c78.741-0.239,157.482-0.149,236.223-0.089C417.988,15.076,426.222,15.806,437.567,16.349z"/>
	<path d="M195.694,303.318c15.501,4.841,28.818,8.149,41.436,13.205c10.358,4.15,20.851,9.14,29.569,15.952
		c16.095,12.574,31.231,26.437,46.196,40.376c11.214,10.445,12.381,21.138,4.696,30.07c-7.376,8.573-18.509,8.342-30.563-0.657
		c-1.576-1.176-3.281-2.259-4.601-3.686c-31.896-34.505-71.921-52.76-117.704-60.803c-14.364-2.523-29.6-5.855-39.778-19.305
		c19.622-11.182,31.446-29.717,44.843-46.845c12.338-15.774,24.783-31.506,38.067-46.47c3.404-3.834,10.355-6.98,15.331-6.539
		c24.245,2.147,48.455,5.086,72.507,8.835c12.748,1.987,18.387,9.5,17.194,19.892c-1.34,11.667-9.581,15.967-19.932,15.868
		c-13.332-0.128-26.767-0.644-39.948-2.487c-14.984-2.096-26.833,0.542-35.51,14.2C211.637,284.15,204.193,292.374,195.694,303.318z
		"/>
	<path d="M124.346,231.146c11.818,13.12,23.359,25.933,36.065,40.039c-11.392,12.569-22.471,25.125-33.946,37.308
		c-5.337,5.667-10.589,5.01-15.911-1.139c-12.373-14.292-25.334-28.073-37.82-42.268c-14.648-16.654-13.766-37.726,3.644-51.94
		c7.819-6.384,9.779-12.772,9.383-22.039c-0.909-21.247-0.968-42.531-1.268-63.802c-0.055-3.923,0.08-7.898,0.65-11.772
		c1.296-8.819,7.22-13.033,15.549-13.215c8.245-0.18,13.698,4.444,14.036,12.821c0.887,22.01,1.237,44.042,1.766,66.066
		c0.093,3.896,0.013,7.796,0.013,14.906c6.055-4.239,11.449-6.558,14.722-10.596c7.905-9.751,14.788-20.328,22.145-30.527
		c4.139-5.739,7.431-12.762,12.918-16.638c4.25-3.002,12.281-4.18,16.834-2.146c3.899,1.742,6.455,8.995,7.312,14.189
		c0.603,3.653-2.175,8.201-4.242,11.904c-14.24,25.508-28.567,50.993-56.81,64.162C127.745,227.222,126.586,229.016,124.346,231.146
		z"/>
	<path d="M71.879,197.621c-0.1,16.017-13.19,29.224-29.146,29.405c-16.413,0.186-30.044-13.398-29.953-29.849
		c0.091-16.539,13.659-29.581,30.378-29.198C59.297,168.348,71.98,181.438,71.879,197.621z"/>
	<path d="M116.94,325.8c8.134,2.365,18.729,21.011,19.075,32.955c0.158,5.474-15.132,15.031-23.944,14.967
		c-5.426-0.04-19.21-23.338-15.55-32.335C99.301,334.553,109.849,330.879,116.94,325.8z"/>
</g>
</svg>
