<?xml version="1.0" encoding="iso-8859-1"?>
<!-- Generator: Adobe Illustrator 26.0.3, SVG Export Plug-In . SVG Version: 6.00 Build 0)  -->
<svg version="1.1" id="Layer_1" xmlns="http://www.w3.org/2000/svg" xmlns:xlink="http://www.w3.org/1999/xlink" x="0px" y="0px"
	 viewBox="0 0 450 450" style="enable-background:new 0 0 450 450;" xml:space="preserve">
<g>
	<path style="fill:#010101;" d="M246.09,137.196c-4.82-2.907-9.438-5.856-14.236-8.474c-1.264-0.69-3.179-0.762-4.639-0.43
		c-19.449,4.421-38.87,8.965-58.795,13.593c-2.582-11.53-5.153-23.006-7.845-35.028c5.541-1.38,10.956-2.796,16.404-4.074
		c19.56-4.589,39.122-9.171,58.715-13.613c1.52-0.345,3.589-0.075,4.898,0.73c13.629,8.382,27.647,16.256,40.541,25.663
		c9.189,6.704,17.453,14.984,24.995,23.559c8.741,9.939,5.127,27.901-6.247,35.999c-17.32,12.332-34.669,24.622-52.003,36.934
		c-0.438,0.311-0.834,0.679-1.549,1.266c7.524,9.24,15.171,18.282,22.41,27.642c4.95,6.4,9.79,12.976,13.816,19.971
		c3.185,5.534,2.889,12.057,1.465,18.216c-3.784,16.362-7.792,32.672-11.691,49.008c-0.19,0.797-0.193,1.638-0.246,2.119
		c22.753,4.844,40.857-6.793,59.782-17.209c4.348,9.455,8.513,18.511,12.861,27.966c-19.511,11.591-37.941,25.077-62.297,25.096
		c12.417,7.492,16.106,14.095,13.264,23.248c-2.515,8.098-9.322,12.924-17.783,12.608c-8.076-0.302-14.932-5.948-16.632-13.698
		c-1.928-8.792,2.322-16.415,12.064-21.287c-31.748,0-63.225,0-94.852,0c10.629,7.232,13.906,14.698,10.514,23.71
		c-2.923,7.765-10.391,12.099-19.214,11.15c-7.176-0.772-13.844-7.084-14.927-14.129c-1.525-9.928,2.894-16.56,15.065-21.594
		c-28.084,0.293-48.088-16.851-70.908-28.771c5.565-6.681,10.903-13.139,16.299-19.55c3.9-4.634,3.837-4.401,9.261-1.818
		c9.921,4.725,19.887,9.381,30.017,13.629c2.937,1.232,6.496,1.329,9.773,1.344c22.428,0.109,44.856,0.04,67.284,0.085
		c2.203,0.004,3.901-0.014,4.516-2.806c4.051-18.389,8.236-36.749,12.414-55.278c-18.101-15.875-36.284-31.63-54.212-47.67
		c-4.978-4.453-10.469-9.075-13.515-14.795c-7.107-13.348-2.634-27.286,10.258-35.991c17.735-11.975,35.517-23.879,53.27-35.827
		C244.945,138.312,245.413,137.794,246.09,137.196z"/>
	<path style="fill:#010101;" d="M83.499,259.591c7.131,0,13.748,0,20.365,0c14.66,0,29.32-0.078,43.979,0.072
		c2.601,0.027,3.89-0.841,5.027-3.068c5.382-10.545,10.923-21.01,16.649-31.965c5.568,5.055,10.953,9.939,16.332,14.83
		c2.863,2.603,5.602,5.356,8.61,7.779c2.162,1.742,2.188,3.264,0.888,5.567c-4.471,7.918-8.631,16.013-13.128,23.916
		c-6.932,12.183-17.64,18.466-31.547,18.634c-21.157,0.255-42.319,0.058-63.479,0.085c-2.097,0.003-3.771,0.007-3.74-2.94
		C83.567,281.732,83.499,270.962,83.499,259.591z"/>
	<path style="fill:#010101;" d="M332.21,47.593c19.612,0.189,35.346,15.864,35.205,35.747
		c-0.142,19.977-16.745,35.895-36.271,35.189c-20.327-0.735-35.036-16.194-34.772-35.818
		C296.655,61.732,313.339,47.47,332.21,47.593z"/>
	<path style="fill:#010101;" d="M303.12,188.08c9.639,11.306,19.118,22.426,28.962,33.973c-9.677,7.077-19.252,14.079-29.036,21.235
		c-9.456-11.311-18.732-22.408-28.395-33.967C284.194,202.201,293.613,195.174,303.12,188.08z"/>
</g>
</svg>
