<?xml version="1.0" encoding="iso-8859-1"?>
<!-- Generator: Adobe Illustrator 26.0.3, SVG Export Plug-In . SVG Version: 6.00 Build 0)  -->
<svg version="1.1" id="Layer_1" xmlns="http://www.w3.org/2000/svg" xmlns:xlink="http://www.w3.org/1999/xlink" x="0px" y="0px"
	 viewBox="0 0 450 450" style="enable-background:new 0 0 450 450;" xml:space="preserve">
<g>
	<path d="M395.448,226.25c-3.719,8.801-4.671,13.595-7.36,17.026c-27.029,34.475-62.633,57.115-103.106,72.264
		c-29.664,11.103-60.008,19.485-92.134,20.951c-8.111,0.37-16.163,6.859-23.817,11.273c-12.113,6.984-23.733,14.827-35.895,21.719
		c-2.254,1.277-6.082-0.223-12.421-0.67c5.941-9.466,10.457-16.663,15.017-23.93c-11.734-12.811-34.937-3.684-42.075-24.22
		c2.445-16.831,20.797-16.624,31.214-27.288c-9.332-28.591-1.512-51.791,26.265-65.689c-4.177-16.165-7.896-30.563-12.126-46.932
		c-7.792-1.904-16.558-3.923-25.259-6.196c-22.721-5.938-40.957-18.058-53.066-38.643c-4.99-8.484-7.051-16.812,0.157-25.674
		c13.617-3.299,18.756,8.407,25.875,15.56c14.962,15.034,32.549,23.412,53.706,21.928c12.363-0.867,24.767-3.296,36.793-6.412
		c41.092-10.647,79.098,0.449,116.355,16.068c5.344,2.24,9.028,8.437,14.204,13.512c-4.492,4.823-7.246,7.781-10.663,11.449
		c-26.476-6.111-52.951-12.222-82.112-18.952c0,15.217,0,27.196,0,41.848c6.929,2.579,14.346,7.513,21.914,7.758
		c24.621,0.796,40.836,11.918,49.569,34.772c1.364,3.569,4.246,6.558,6.814,10.395C325.782,248.015,358.418,237.819,395.448,226.25z
		 M251.189,267.576c-2.332-18.647-3.937-20.853-18.775-21.89c-28.253-1.975-53.768,6.471-79.569,21.521
		c3.487,6.449,6.362,11.765,9.684,17.91C193.161,279.056,222.263,273.299,251.189,267.576z"/>
	<path d="M170.701,80.325c17.432,1.492,28.581,8.405,31.945,28.015c-2.201,6.008-5.289,14.434-7.892,21.539
		c-27.908,9.437-38.183,6.648-45.537-11.069C142.238,102,147.762,91.835,170.701,80.325z"/>
</g>
</svg>
